<svg xmlns="http://www.w3.org/2000/svg" width="700" height="400" viewBox="0 0 700 400">
  <rect width="700" height="400" fill="#f8f9fa"/>
  <rect x="45" y="120" width="160" height="100" fill="#d1e7ff" stroke="#4285f4" stroke-width="2" rx="5"/>
  <text x="125" y="160" font-family="Arial" font-size="14" text-anchor="middle" font-weight="bold">Large Language Model</text>
  <text x="125" y="180" font-family="Arial" font-size="12" text-anchor="middle">Generates HTML</text>
  <rect x="275" y="120" width="150" height="100" fill="#c8e6c9" stroke="#34a853" stroke-width="2" rx="5"/>
  <text x="350" y="150" font-family="Arial" font-size="14" text-anchor="middle" font-weight="bold">Pages Deploy</text>
  <text x="350" y="170" font-family="Arial" font-size="14" text-anchor="middle" font-weight="bold">MCP Server</text>
  <text x="350" y="190" font-family="Arial" font-size="12" text-anchor="middle">deploy_html tool</text>
  <rect x="500" y="80" width="150" height="180" fill="#ffecb3" stroke="#fbbc05" stroke-width="2" rx="5"/>
  <text x="575" y="110" font-family="Arial" font-size="14" text-anchor="middle" font-weight="bold">Pages</text>
  <text x="575" y="130" font-family="Arial" font-size="12" text-anchor="middle">Edge Functions</text>
  <rect x="520" y="160" width="110" height="50" fill="#fff9c4" stroke="#fbbc05" stroke-width="1" rx="4"/>
  <text x="575" y="190" font-family="Arial" font-size="12" text-anchor="middle" font-weight="bold">Edge KV Store</text>
  <rect x="275" y="300" width="150" height="60" fill="#f5f5f5" stroke="#9e9e9e" stroke-width="2" rx="5"/>
  <text x="350" y="330" font-family="Arial" font-size="14" text-anchor="middle" font-weight="bold">User Browser</text>
  <text x="350" y="350" font-family="Arial" font-size="12" text-anchor="middle">Public Access</text>
  <line x1="205" y1="170" x2="270" y2="170" stroke="#4285f4" stroke-width="2"/>
  <polygon points="265,165 275,170 265,175" fill="#4285f4"/>
  <text x="240" y="160" font-family="Arial" font-size="10" text-anchor="middle">HTML Content</text>
  <line x1="425" y1="170" x2="500" y2="170" stroke="#34a853" stroke-width="2"/>
  <polygon points="490,165 500,170 490,175" fill="#34a853"/>
  <text x="462" y="160" font-family="Arial" font-size="10" text-anchor="middle">Deploy Content</text>
  <line x1="500" y1="190" x2="425" y2="190" stroke="#fbbc05" stroke-width="2"/>
  <polygon points="435,185 425,190 435,195" fill="#fbbc05"/>
  <text x="460" y="205" font-family="Arial" font-size="10" text-anchor="middle">Return URL</text>
  <line x1="350" y1="220" x2="350" y2="300" stroke="#34a853" stroke-width="2" stroke-dasharray="5,5"/>
  <polygon points="345,290 350,300 355,290" fill="#34a853"/>
  <text x="400" y="260" font-family="Arial" font-size="10" text-anchor="middle">Public URL</text>
  <line x1="425" y1="330" x2="550" y2="260" stroke="#9e9e9e" stroke-width="2"/>
  <polygon points="543,267 550,260 540,262" fill="#9e9e9e"/>
  <text x="540" y="300" font-family="Arial" font-size="10" text-anchor="middle">Fast Edge Access</text>
  <text x="350" y="40" font-family="Arial" font-size="18" text-anchor="middle" font-weight="bold">EdgeOne Pages Deploy MCP Architecture</text>
</svg> 